<svg width="223" height="149" viewBox="0 0 223 149" fill="none" xmlns="http://www.w3.org/2000/svg">
<path d="M139 48.5H87L142.5 52L156 12L168 52H214L177 78.5L192 120.5L155.5 94.5L139 111.5L155.5 99L198 128.5L182.5 80L223 48.5H172L155.5 0L139 48.5Z" fill="#FC0E0E"/>
<path d="M56 55H59V68H73V55H76V84H73V71H59V84H56V55Z" fill="#FC0E0E"/>
<path d="M29 84V55H32V79L48 55H51V84H48V60L32 84H29Z" fill="#FC0E0E"/>
<path d="M82 84V55H85V79L101 55H104V84H101V60L85 84H82Z" fill="#FC0E0E"/>
<path d="M11.5 55L0 84H4L13 59.5L22 84H25.5L14.5 55H11.5Z" fill="#FC0E0E"/>
<rect x="123" y="55" width="3" height="29" fill="#FC0E0E"/>
<rect x="116" y="55" width="10" height="3" fill="#FC0E0E"/>
<path fill-rule="evenodd" clip-rule="evenodd" d="M116 55.0129C110.986 55.2729 107 59.421 107 64.5C107 69.7467 111.253 74 116.5 74C117.219 74 117.92 73.92 118.594 73.7685L120.536 71H117V70.9811C116.835 70.9936 116.668 71 116.5 71C112.91 71 110 68.0899 110 64.5C110 61.0784 112.644 58.2743 116 58.019V55.0129Z" fill="#FC0E0E"/>
<path fill-rule="evenodd" clip-rule="evenodd" d="M118.991 73.0851L116.555 71.334L108 84H111.5L118.991 73.0851Z" fill="#FC0E0E"/>
<path d="M64 88.5V92H49V126H45.5V88.5H64Z" fill="#FEFEFE"/>
<path d="M69 88H73V105H92V88H96V126H92V109H73V126H69V88Z" fill="#FEFEFE"/>
<path fill-rule="evenodd" clip-rule="evenodd" d="M20 127C31.0457 127 40 118.046 40 107C40 95.9543 31.0457 87 20 87C8.95432 87 0 95.9543 0 107C0 118.046 8.95432 127 20 127ZM20 123C28.8365 123 36 115.837 36 107C36 98.1635 28.8365 91 20 91C11.1635 91 4 98.1635 4 107C4 115.837 11.1635 123 20 123Z" fill="#FEFEFE"/>
<path d="M8.772 138.183C8.772 138.75 8.602 139.192 8.262 139.509C7.922 139.826 7.48567 140.042 6.953 140.155V140.223C7.51967 140.302 8.01267 140.506 8.432 140.835C8.85133 141.152 9.061 141.651 9.061 142.331C9.061 142.716 8.98733 143.073 8.84 143.402C8.704 143.731 8.48867 144.014 8.194 144.252C7.89933 144.49 7.51967 144.677 7.055 144.813C6.59033 144.938 6.02933 145 5.372 145H1.445V135.888H5.355C6.001 135.888 6.579 135.962 7.089 136.109C7.61033 136.245 8.01833 136.483 8.313 136.823C8.619 137.152 8.772 137.605 8.772 138.183ZM7.514 142.331C7.514 141.81 7.31567 141.436 6.919 141.209C6.52233 140.982 5.93867 140.869 5.168 140.869H2.941V143.793H5.202C5.95 143.793 6.52233 143.685 6.919 143.47C7.31567 143.243 7.514 142.864 7.514 142.331ZM7.259 138.37C7.259 137.939 7.10033 137.628 6.783 137.435C6.477 137.231 5.97267 137.129 5.27 137.129H2.941V139.628H4.998C5.73467 139.628 6.29567 139.526 6.681 139.322C7.06633 139.118 7.259 138.801 7.259 138.37ZM19.1619 140.427C19.1619 141.186 19.0599 141.861 18.8559 142.45C18.6633 143.028 18.3799 143.521 18.0059 143.929C17.6433 144.337 17.1956 144.649 16.6629 144.864C16.1416 145.068 15.5579 145.17 14.9119 145.17C14.3113 145.17 13.7559 145.068 13.2459 144.864C12.7359 144.649 12.2939 144.337 11.9199 143.929C11.5459 143.521 11.2513 143.028 11.0359 142.45C10.8319 141.861 10.7299 141.186 10.7299 140.427C10.7299 139.418 10.8999 138.568 11.2399 137.877C11.5799 137.174 12.0673 136.642 12.7019 136.279C13.3366 135.905 14.0903 135.718 14.9629 135.718C15.7903 135.718 16.5156 135.905 17.1389 136.279C17.7736 136.642 18.2666 137.174 18.6179 137.877C18.9806 138.568 19.1619 139.418 19.1619 140.427ZM12.2769 140.427C12.2769 141.141 12.3676 141.764 12.5489 142.297C12.7416 142.818 13.0363 143.221 13.4329 143.504C13.8296 143.787 14.3339 143.929 14.9459 143.929C15.5579 143.929 16.0623 143.787 16.4589 143.504C16.8556 143.221 17.1446 142.818 17.3259 142.297C17.5186 141.764 17.6149 141.141 17.6149 140.427C17.6149 139.702 17.5186 139.084 17.3259 138.574C17.1333 138.064 16.8386 137.673 16.4419 137.401C16.0566 137.118 15.5523 136.976 14.9289 136.976C13.9996 136.976 13.3253 137.282 12.9059 137.894C12.4866 138.506 12.2769 139.35 12.2769 140.427ZM25.0519 135.718C25.8339 135.718 26.5026 135.888 27.0579 136.228C27.6246 136.568 28.0552 137.05 28.3499 137.673C28.6559 138.285 28.8089 139.005 28.8089 139.832V140.733H22.5699C22.5926 141.764 22.8532 142.552 23.3519 143.096C23.8619 143.629 24.5702 143.895 25.4769 143.895C26.0549 143.895 26.5649 143.844 27.0069 143.742C27.4602 143.629 27.9249 143.47 28.4009 143.266V144.575C27.9362 144.779 27.4772 144.926 27.0239 145.017C26.5706 145.119 26.0322 145.17 25.4089 145.17C24.5476 145.17 23.7826 144.994 23.1139 144.643C22.4566 144.292 21.9409 143.77 21.5669 143.079C21.2042 142.376 21.0229 141.521 21.0229 140.512C21.0229 139.515 21.1872 138.659 21.5159 137.945C21.8559 137.231 22.3262 136.681 22.9269 136.296C23.5389 135.911 24.2472 135.718 25.0519 135.718ZM25.0349 136.942C24.3209 136.942 23.7542 137.174 23.3349 137.639C22.9269 138.092 22.6832 138.727 22.6039 139.543H27.2449C27.2449 139.022 27.1656 138.568 27.0069 138.183C26.8482 137.798 26.6046 137.497 26.2759 137.282C25.9586 137.055 25.5449 136.942 25.0349 136.942ZM32.6246 135.888V139.679H37.5716V135.888H39.0676V145H37.5716V140.937H32.6246V145H31.1286V135.888H32.6246ZM43.4488 135.888V139.679H48.3958V135.888H49.8918V145H48.3958V140.937H43.4488V145H41.9528V135.888H43.4488ZM60.699 140.427C60.699 141.186 60.597 141.861 60.393 142.45C60.2004 143.028 59.917 143.521 59.543 143.929C59.1804 144.337 58.7327 144.649 58.2 144.864C57.6787 145.068 57.095 145.17 56.449 145.17C55.8484 145.17 55.293 145.068 54.783 144.864C54.273 144.649 53.831 144.337 53.457 143.929C53.083 143.521 52.7884 143.028 52.573 142.45C52.369 141.861 52.267 141.186 52.267 140.427C52.267 139.418 52.437 138.568 52.777 137.877C53.117 137.174 53.6044 136.642 54.239 136.279C54.8737 135.905 55.6274 135.718 56.5 135.718C57.3274 135.718 58.0527 135.905 58.676 136.279C59.3107 136.642 59.8037 137.174 60.155 137.877C60.5177 138.568 60.699 139.418 60.699 140.427ZM53.814 140.427C53.814 141.141 53.9047 141.764 54.086 142.297C54.2787 142.818 54.5734 143.221 54.97 143.504C55.3667 143.787 55.871 143.929 56.483 143.929C57.095 143.929 57.5994 143.787 57.996 143.504C58.3927 143.221 58.6817 142.818 58.863 142.297C59.0557 141.764 59.152 141.141 59.152 140.427C59.152 139.702 59.0557 139.084 58.863 138.574C58.6704 138.064 58.3757 137.673 57.979 137.401C57.5937 137.118 57.0894 136.976 56.466 136.976C55.5367 136.976 54.8624 137.282 54.443 137.894C54.0237 138.506 53.814 139.35 53.814 140.427ZM74.464 137.146H71.489V145H70.01V137.146H67.069V135.888H74.464V137.146ZM90.8279 135.888H92.4599L88.5669 140.274L92.7829 145H91.0489L86.9349 140.376V145H85.4389V135.888H86.9349V140.308L90.8279 135.888ZM100.727 137.146H97.752V145H96.273V137.146H93.332V135.888H100.727V137.146ZM103.933 141.447C103.933 141.549 103.927 141.696 103.916 141.889C103.916 142.07 103.91 142.269 103.899 142.484C103.888 142.688 103.876 142.886 103.865 143.079C103.854 143.26 103.842 143.408 103.831 143.521L108.71 135.888H110.546V145H109.152V139.628C109.152 139.447 109.152 139.209 109.152 138.914C109.163 138.619 109.175 138.33 109.186 138.047C109.197 137.752 109.209 137.531 109.22 137.384L104.375 145H102.522V135.888H103.933V141.447ZM114.755 139.203C114.755 139.736 114.902 140.132 115.197 140.393C115.503 140.642 115.939 140.767 116.506 140.767C117.072 140.767 117.588 140.682 118.053 140.512C118.517 140.331 118.993 140.093 119.481 139.798V135.888H120.977V145H119.481V140.937C118.971 141.266 118.466 141.526 117.968 141.719C117.48 141.9 116.891 141.991 116.2 141.991C115.27 141.991 114.545 141.747 114.024 141.26C113.514 140.773 113.259 140.121 113.259 139.305V135.888H114.755V139.203ZM127.391 135.718C128.173 135.718 128.841 135.888 129.397 136.228C129.963 136.568 130.394 137.05 130.689 137.673C130.995 138.285 131.148 139.005 131.148 139.832V140.733H124.909C124.931 141.764 125.192 142.552 125.691 143.096C126.201 143.629 126.909 143.895 127.816 143.895C128.394 143.895 128.904 143.844 129.346 143.742C129.799 143.629 130.264 143.47 130.74 143.266V144.575C130.275 144.779 129.816 144.926 129.363 145.017C128.909 145.119 128.371 145.17 127.748 145.17C126.886 145.17 126.121 144.994 125.453 144.643C124.795 144.292 124.28 143.77 123.906 143.079C123.543 142.376 123.362 141.521 123.362 140.512C123.362 139.515 123.526 138.659 123.855 137.945C124.195 137.231 124.665 136.681 125.266 136.296C125.878 135.911 126.586 135.718 127.391 135.718ZM127.374 136.942C126.66 136.942 126.093 137.174 125.674 137.639C125.266 138.092 125.022 138.727 124.943 139.543H129.584C129.584 139.022 129.504 138.568 129.346 138.183C129.187 137.798 128.943 137.497 128.615 137.282C128.297 137.055 127.884 136.942 127.374 136.942ZM137.122 145.17C136.318 145.17 135.598 145.006 134.963 144.677C134.34 144.348 133.847 143.838 133.484 143.147C133.133 142.456 132.957 141.572 132.957 140.495C132.957 139.373 133.144 138.461 133.518 137.758C133.892 137.055 134.397 136.54 135.031 136.211C135.677 135.882 136.408 135.718 137.224 135.718C137.689 135.718 138.137 135.769 138.567 135.871C138.998 135.962 139.349 136.075 139.621 136.211L139.162 137.452C138.89 137.35 138.573 137.254 138.21 137.163C137.848 137.072 137.508 137.027 137.19 137.027C136.578 137.027 136.074 137.157 135.677 137.418C135.281 137.679 134.986 138.064 134.793 138.574C134.601 139.084 134.504 139.719 134.504 140.478C134.504 141.203 134.601 141.821 134.793 142.331C134.986 142.841 135.275 143.226 135.66 143.487C136.046 143.748 136.527 143.878 137.105 143.878C137.604 143.878 138.04 143.827 138.414 143.725C138.8 143.623 139.151 143.498 139.468 143.351V144.677C139.162 144.836 138.822 144.955 138.448 145.034C138.086 145.125 137.644 145.17 137.122 145.17ZM147.024 135.888H148.656L144.763 140.274L148.979 145H147.245L143.131 140.376V145H141.635V135.888H143.131V140.308L147.024 135.888ZM152.044 141.447C152.044 141.549 152.039 141.696 152.027 141.889C152.027 142.07 152.022 142.269 152.01 142.484C151.999 142.688 151.988 142.886 151.976 143.079C151.965 143.26 151.954 143.408 151.942 143.521L156.821 135.888H158.657V145H157.263V139.628C157.263 139.447 157.263 139.209 157.263 138.914C157.275 138.619 157.286 138.33 157.297 138.047C157.309 137.752 157.32 137.531 157.331 137.384L152.486 145H150.633V135.888H152.044V141.447ZM168.935 132.114C168.89 132.681 168.748 133.157 168.51 133.542C168.283 133.927 167.943 134.216 167.49 134.409C167.037 134.602 166.447 134.698 165.722 134.698C164.985 134.698 164.39 134.602 163.937 134.409C163.495 134.216 163.172 133.933 162.968 133.559C162.764 133.174 162.639 132.692 162.594 132.114H163.988C164.045 132.726 164.203 133.14 164.464 133.355C164.736 133.559 165.167 133.661 165.756 133.661C166.277 133.661 166.685 133.553 166.98 133.338C167.286 133.111 167.467 132.703 167.524 132.114H168.935ZM162.968 141.447C162.968 141.549 162.962 141.696 162.951 141.889C162.951 142.07 162.945 142.269 162.934 142.484C162.923 142.688 162.911 142.886 162.9 143.079C162.889 143.26 162.877 143.408 162.866 143.521L167.745 135.888H169.581V145H168.187V139.628C168.187 139.447 168.187 139.209 168.187 138.914C168.198 138.619 168.21 138.33 168.221 138.047C168.232 137.752 168.244 137.531 168.255 137.384L163.41 145H161.557V135.888H162.968V141.447ZM182.967 135.888H184.599L180.706 140.274L184.922 145H183.188L179.074 140.376V145H177.578V135.888H179.074V140.308L182.967 135.888ZM206.16 139.526C206.16 138.2 206.29 137.072 206.551 136.143C206.823 135.202 207.236 134.454 207.792 133.899C208.358 133.332 209.084 132.953 209.968 132.76C210.704 132.601 211.424 132.46 212.127 132.335C212.829 132.21 213.487 132.097 214.099 131.995L214.354 133.304C214.059 133.349 213.73 133.406 213.368 133.474C213.005 133.531 212.637 133.593 212.263 133.661C211.889 133.718 211.526 133.78 211.175 133.848C210.835 133.905 210.534 133.961 210.274 134.018C209.9 134.097 209.565 134.233 209.271 134.426C208.976 134.607 208.721 134.857 208.506 135.174C208.302 135.491 208.137 135.882 208.013 136.347C207.888 136.812 207.814 137.361 207.792 137.996H207.894C208.052 137.781 208.268 137.56 208.54 137.333C208.823 137.106 209.157 136.914 209.543 136.755C209.939 136.596 210.387 136.517 210.886 136.517C211.679 136.517 212.336 136.693 212.858 137.044C213.39 137.384 213.787 137.86 214.048 138.472C214.32 139.084 214.456 139.798 214.456 140.614C214.456 141.623 214.28 142.467 213.929 143.147C213.577 143.827 213.09 144.337 212.467 144.677C211.843 145.006 211.118 145.17 210.291 145.17C209.667 145.17 209.101 145.051 208.591 144.813C208.081 144.564 207.644 144.201 207.282 143.725C206.919 143.249 206.641 142.66 206.449 141.957C206.256 141.254 206.16 140.444 206.16 139.526ZM210.41 143.929C210.908 143.929 211.339 143.827 211.702 143.623C212.076 143.419 212.365 143.085 212.569 142.62C212.773 142.155 212.875 141.538 212.875 140.767C212.875 139.838 212.699 139.107 212.348 138.574C212.008 138.03 211.441 137.758 210.648 137.758C210.149 137.758 209.696 137.871 209.288 138.098C208.88 138.313 208.54 138.563 208.268 138.846C207.996 139.129 207.803 139.367 207.69 139.56C207.69 140.115 207.729 140.654 207.809 141.175C207.888 141.696 208.024 142.167 208.217 142.586C208.421 142.994 208.698 143.323 209.05 143.572C209.412 143.81 209.866 143.929 210.41 143.929Z" fill="#FAFAFA"/>
<path d="M191 136L186.5 145H188L191 139L194 145H195.5L191 136Z" fill="#FAFAFA"/>
<path d="M203.5 136H205L200 149H198.5L203.5 136Z" fill="#FAFAFA"/>
<path d="M196 136H197.5L201 144.5L200 145.5L196 136Z" fill="#FAFAFA"/>
<path fill-rule="evenodd" clip-rule="evenodd" d="M79.5 145C81.9853 145 84 142.985 84 140.5C84 138.015 81.9853 136 79.5 136C77.0147 136 75 138.015 75 140.5C75 142.985 77.0147 145 79.5 145ZM79.5 144C81.433 144 83 142.433 83 140.5C83 138.567 81.433 137 79.5 137C77.567 137 76 138.567 76 140.5C76 142.433 77.567 144 79.5 144Z" fill="#FAFAFA"/>
<path d="M82.5 136H84V145H82.5V136Z" fill="#FAFAFA"/>
<path d="M62.5 139.5H66.5V141H62.5V139.5Z" fill="#FAFAFA"/>
<path fill-rule="evenodd" clip-rule="evenodd" d="M121.966 88H112.793L112.793 88.017C106.223 88.3577 101 93.7931 101 100.448C101 106.586 105.442 111.686 111.287 112.71L102.31 126L106.85 126L118.498 108.965H114.103V108.965H113.559C113.522 108.965 113.485 108.966 113.448 108.966C108.744 108.966 104.931 105.152 104.931 100.448C104.931 95.9648 108.395 92.2904 112.793 91.9559L112.793 91.931H121.966V126H125.897V88H121.966Z" fill="#FEFEFE"/>
</svg>
