<!-- icon666.com - MILLIONS vector ICONS FREE --><svg id="Layer_1" viewBox="0 0 512 512" xmlns="http://www.w3.org/2000/svg" data-name="Layer 1"><rect fill="#475d9b" height="440" rx="56" width="440" x="26" y="40" style="fill: rgb(255, 255, 255);"></rect><path d="m466 424v-178.036c-27.187-27.411-60.851-61.566-64.206-64.46-4.21-3.116-19.336-3.116-34.307-3.116-15.286.311-30.574.311-34.163 1.716-3.266 1.244-10.6 19.026-20.108 37.268-2.329 4.39-42.739-40.4-45.078-41.789-5.772-4.061-21.675-7.949-21.675-7.949s-47.733-3.594-54.433 16.992c9.077 1.233 24.382-1.486 18.944 59.722-3.666-.075-59.864-65.788-64.016-65.96-24.5-.472-48.817-1.561-57.232 3.116-7.961 4.683 10.6 41.173 41.95 90.151 15.214 24.086 31 44.927 51.25 59.453 6.765 8.792 86.574 93.774 148.064 148.892h79.01a56 56 0 0 0 56-56z" fill="#1a1a1a" opacity=".21" style="fill: rgb(123, 111, 111);"></path><path d="m401.794 181.5c-4.21-3.116-19.336-3.116-34.307-3.116-15.287.311-30.574.311-34.162 1.716-3.267 1.244-10.6 19.026-20.109 37.268-10.927 20.6-24.175 40.556-32.6 40.234-11.071 0-8.416-33.84-7.638-58.943.15-16.381-2.5-21.686-4.838-23.08-5.772-4.061-21.675-7.949-21.675-7.949s-47.734-3.594-54.433 16.992c9.2 1.25 24.8-1.566 18.715 62.221-.467 3.127-7.333 29.324-29.48-6.083-5.616-8.883-26.819-62.065-34.307-62.376-24.5-.472-48.817-1.561-57.232 3.116-7.96 4.683 10.6 41.173 41.95 90.151 25.414 40.234 52.4 71.43 99.188 79.223 8.888.945 31.663 1.867 39-1.555 4.827-2.344-1.255-36.962 15.437-40.4 7.332-1.4 35.862 36.19 46.622 40.4 6.566 2.65 20.909 3.738 35.568 3.111 15.909-.461 33.99 1.567 35.707-9.349 3.9-23.864-48.177-55.065-49.589-69.719-1.249-10.6 19.031-30.1 29.319-45.073 12.782-18.092 26.83-39.923 18.87-46.789z" fill="#fff" fill-rule="evenodd" style="fill: rgb(91, 159, 231);"></path></svg>